<svg width="133" height="69" viewBox="0 0 133 69" fill="none" xmlns="http://www.w3.org/2000/svg">
<path d="M2.494 35V33.686L5.536 32.984V9.548L2.494 8.882V7.586H24.292L24.904 15.416H23.518C23.23 14.48 22.882 13.508 22.474 12.5C22.066 11.492 21.562 10.52 20.962 9.584H11.62V32.984L15.67 33.686V35H2.494ZM17.74 25.478C17.512 24.158 17.074 22.808 16.426 21.428H11.152V19.538H16.426C16.774 18.854 17.05 18.182 17.254 17.522C17.458 16.85 17.62 16.184 17.74 15.524H19.144V25.478H17.74ZM35.4753 35.378C33.3033 35.378 31.4553 34.934 29.9313 34.046C28.4193 33.158 27.2673 31.97 26.4753 30.482C25.6953 28.994 25.3053 27.356 25.3053 25.568C25.3053 23.768 25.6953 22.13 26.4753 20.654C27.2673 19.166 28.4193 17.978 29.9313 17.09C31.4553 16.202 33.3033 15.758 35.4753 15.758C37.6473 15.758 39.4833 16.202 40.9833 17.09C42.4953 17.978 43.6473 19.166 44.4393 20.654C45.2313 22.13 45.6273 23.768 45.6273 25.568C45.6273 27.356 45.2313 28.994 44.4393 30.482C43.6473 31.97 42.4953 33.158 40.9833 34.046C39.4833 34.934 37.6473 35.378 35.4753 35.378ZM35.4753 33.542C36.3393 33.542 37.0413 33.29 37.5813 32.786C38.1333 32.27 38.5533 31.604 38.8413 30.788C39.1413 29.972 39.3453 29.108 39.4533 28.196C39.5733 27.272 39.6333 26.396 39.6333 25.568C39.6333 24.752 39.5793 23.882 39.4713 22.958C39.3633 22.034 39.1593 21.17 38.8593 20.366C38.5713 19.55 38.1513 18.89 37.5993 18.386C37.0593 17.87 36.3513 17.612 35.4753 17.612C34.5993 17.612 33.8853 17.87 33.3333 18.386C32.7813 18.89 32.3553 19.55 32.0553 20.366C31.7673 21.17 31.5693 22.034 31.4613 22.958C31.3533 23.882 31.2993 24.752 31.2993 25.568C31.2993 26.396 31.3533 27.272 31.4613 28.196C31.5693 29.108 31.7673 29.972 32.0553 30.788C32.3553 31.604 32.7813 32.27 33.3333 32.786C33.8853 33.29 34.5993 33.542 35.4753 33.542ZM58.3621 35.378C56.1901 35.378 54.3421 34.934 52.8181 34.046C51.3061 33.158 50.1541 31.97 49.3621 30.482C48.5821 28.994 48.1921 27.356 48.1921 25.568C48.1921 23.768 48.5821 22.13 49.3621 20.654C50.1541 19.166 51.3061 17.978 52.8181 17.09C54.3421 16.202 56.1901 15.758 58.3621 15.758C60.5341 15.758 62.3701 16.202 63.8701 17.09C65.3821 17.978 66.5341 19.166 67.3261 20.654C68.1181 22.13 68.5141 23.768 68.5141 25.568C68.5141 27.356 68.1181 28.994 67.3261 30.482C66.5341 31.97 65.3821 33.158 63.8701 34.046C62.3701 34.934 60.5341 35.378 58.3621 35.378ZM58.3621 33.542C59.2261 33.542 59.9281 33.29 60.4681 32.786C61.0201 32.27 61.4401 31.604 61.7281 30.788C62.0281 29.972 62.2321 29.108 62.3401 28.196C62.4601 27.272 62.5201 26.396 62.5201 25.568C62.5201 24.752 62.4661 23.882 62.3581 22.958C62.2501 22.034 62.0461 21.17 61.7461 20.366C61.4581 19.55 61.0381 18.89 60.4861 18.386C59.9461 17.87 59.2381 17.612 58.3621 17.612C57.4861 17.612 56.7721 17.87 56.2201 18.386C55.6681 18.89 55.2421 19.55 54.9421 20.366C54.6541 21.17 54.4561 22.034 54.3481 22.958C54.2401 23.882 54.1861 24.752 54.1861 25.568C54.1861 26.396 54.2401 27.272 54.3481 28.196C54.4561 29.108 54.6541 29.972 54.9421 30.788C55.2421 31.604 55.6681 32.27 56.2201 32.786C56.7721 33.29 57.4861 33.542 58.3621 33.542ZM79.2328 35.378C77.7208 35.378 76.3468 34.964 75.1108 34.136C73.8868 33.308 72.9148 32.18 72.1948 30.752C71.4748 29.312 71.1148 27.686 71.1148 25.874C71.1148 23.882 71.5288 22.13 72.3568 20.618C73.1848 19.094 74.3308 17.906 75.7948 17.054C77.2588 16.19 78.9448 15.758 80.8528 15.758C82.2328 15.758 83.6068 16.058 84.9748 16.658V8.99L81.9508 8V7.172L89.7268 5.426H90.5008V31.526L93.3268 32.408V33.128L85.9108 35.378H85.2628V33.182L85.0828 33.11C84.3508 33.83 83.4808 34.388 82.4728 34.784C81.4768 35.18 80.3968 35.378 79.2328 35.378ZM81.5188 32.804C82.2268 32.804 82.8748 32.636 83.4628 32.3C84.0508 31.964 84.5548 31.508 84.9748 30.932V22.112C84.9748 20.792 84.6628 19.724 84.0388 18.908C83.4148 18.092 82.5868 17.684 81.5548 17.684C80.2468 17.684 79.1908 18.386 78.3868 19.79C77.5948 21.182 77.1988 23.012 77.1988 25.28C77.1988 27.584 77.5768 29.414 78.3328 30.77C79.1008 32.126 80.1628 32.804 81.5188 32.804ZM94.6233 35V33.74L97.6653 33.038V19.286L94.6233 18.314V17.468L102.435 15.758H103.191V33.038L106.035 33.74V35H94.6233ZM100.365 13.094C99.3813 13.094 98.6253 12.788 98.0973 12.176C97.5693 11.564 97.3053 10.898 97.3053 10.178C97.3053 9.398 97.5753 8.708 98.1153 8.108C98.6673 7.508 99.4173 7.208 100.365 7.208C101.337 7.208 102.105 7.508 102.669 8.108C103.245 8.708 103.533 9.398 103.533 10.178C103.533 10.898 103.263 11.564 102.723 12.176C102.195 12.788 101.409 13.094 100.365 13.094ZM117.679 35.378C115.711 35.378 113.989 34.982 112.513 34.19C111.049 33.386 109.909 32.27 109.093 30.842C108.289 29.402 107.887 27.74 107.887 25.856C107.887 23.852 108.337 22.094 109.237 20.582C110.137 19.07 111.385 17.888 112.981 17.036C114.589 16.184 116.449 15.758 118.561 15.758C121.285 15.758 123.355 16.496 124.771 17.972C126.199 19.436 126.955 21.596 127.039 24.452L126.769 24.686H111.217V23.066L121.135 22.706C121.231 22.454 121.279 22.004 121.279 21.356C121.279 18.836 120.223 17.576 118.111 17.576C116.731 17.576 115.669 18.176 114.925 19.376C114.193 20.576 113.827 22.28 113.827 24.488C113.827 29.288 115.681 31.688 119.389 31.688C121.957 31.688 123.979 30.812 125.455 29.06L126.445 29.906C125.809 31.634 124.717 32.978 123.169 33.938C121.633 34.898 119.803 35.378 117.679 35.378Z" fill="black"/>
<path d="M0.61 64V63.27C1.23 63.1633 1.69667 63.0433 2.01 62.91C2.33 62.7767 2.58 62.5733 2.76 62.3C2.94667 62.02 3.14333 61.6133 3.35 61.08L7.09 51.53L6.18 49.49L9.13 48.37L14.79 62.07C14.9167 62.3633 15.0533 62.5933 15.2 62.76C15.3467 62.92 15.5533 63.0367 15.82 63.11C16.0867 63.1833 16.46 63.2367 16.94 63.27V64H8.78V63.27C9.35333 63.25 9.79667 63.2067 10.11 63.14C10.43 63.0667 10.6233 62.9267 10.69 62.72C10.7567 62.5067 10.7033 62.18 10.53 61.74L7.61 53.79H7.53L4.72 61.11C4.55333 61.59 4.49333 61.97 4.54 62.25C4.59333 62.5233 4.79333 62.7367 5.14 62.89C5.48667 63.0367 6.01667 63.1633 6.73 63.27V64H0.61ZM4.64 59.6V58.48H11.02V59.6H4.64ZM21.3963 64.21C20.5563 64.21 19.7929 63.98 19.1063 63.52C18.4263 63.06 17.8863 62.4333 17.4863 61.64C17.0863 60.84 16.8863 59.9367 16.8863 58.93C16.8863 57.8233 17.1163 56.85 17.5763 56.01C18.0363 55.1633 18.6729 54.5033 19.4863 54.03C20.2996 53.55 21.2363 53.31 22.2963 53.31C23.0629 53.31 23.8263 53.4767 24.5863 53.81V49.55L22.9063 49V48.54L27.2262 47.57H27.6563V62.07L29.2263 62.56V62.96L25.1063 64.21H24.7463V62.99L24.6463 62.95C24.2396 63.35 23.7563 63.66 23.1963 63.88C22.6429 64.1 22.0429 64.21 21.3963 64.21ZM22.6663 62.78C23.0596 62.78 23.4196 62.6867 23.7463 62.5C24.0729 62.3133 24.3529 62.06 24.5863 61.74V56.84C24.5863 56.1067 24.4129 55.5133 24.0663 55.06C23.7196 54.6067 23.2596 54.38 22.6863 54.38C21.9596 54.38 21.3729 54.77 20.9263 55.55C20.4863 56.3233 20.2663 57.34 20.2663 58.6C20.2663 59.88 20.4763 60.8967 20.8963 61.65C21.3229 62.4033 21.9129 62.78 22.6663 62.78ZM29.9966 64V63.3L31.4766 62.91V55.29L30.0266 54.73V54.28L33.6666 53.31H34.4766V54.7L34.5466 54.8V62.91L35.9366 63.3V64H29.9966ZM36.6166 64V63.3L38.0066 62.91V57.71C38.0066 56.7567 37.8666 56.0767 37.5866 55.67C37.3066 55.2567 36.8399 55.05 36.1866 55.05C35.6999 55.05 35.2866 55.1567 34.9466 55.37C34.6132 55.5767 34.3099 55.8867 34.0366 56.3V55.02C34.5032 54.5067 35.1032 54.0933 35.8366 53.78C36.5699 53.4667 37.3099 53.31 38.0566 53.31C39.0899 53.31 39.8499 53.61 40.3366 54.21C40.8299 54.81 41.0766 55.7533 41.0766 57.04V62.91L42.4666 63.3V64H36.6166ZM43.1566 64V63.3L44.5366 62.91V57.71C44.5366 56.7433 44.4066 56.0633 44.1466 55.67C43.8866 55.2767 43.4366 55.08 42.7966 55.08C42.3232 55.08 41.9032 55.18 41.5366 55.38C41.1766 55.58 40.8532 55.8933 40.5666 56.32V55.02C41.0266 54.5067 41.6266 54.0933 42.3666 53.78C43.1066 53.4667 43.8532 53.31 44.6066 53.31C45.6266 53.31 46.3799 53.61 46.8666 54.21C47.3532 54.81 47.5966 55.7533 47.5966 57.04V62.91L48.9866 63.3V64H43.1566ZM49.888 64V63.3L51.578 62.91V55.27L49.888 54.73V54.26L54.228 53.31H54.648V62.91L56.228 63.3V64H49.888ZM53.078 51.83C52.5313 51.83 52.1113 51.66 51.818 51.32C51.5246 50.98 51.378 50.61 51.378 50.21C51.378 49.7767 51.528 49.3933 51.828 49.06C52.1346 48.7267 52.5513 48.56 53.078 48.56C53.618 48.56 54.0446 48.7267 54.358 49.06C54.678 49.3933 54.838 49.7767 54.838 50.21C54.838 50.61 54.688 50.98 54.388 51.32C54.0946 51.66 53.658 51.83 53.078 51.83ZM63.9469 64V63.3L65.3369 62.91V57.49C65.3369 56.6767 65.1735 56.0767 64.8469 55.69C64.5202 55.2967 64.0302 55.1 63.3769 55.1C62.5502 55.1 61.8902 55.4533 61.3969 56.16V54.91C61.8702 54.43 62.4269 54.0433 63.0669 53.75C63.7135 53.4567 64.4335 53.31 65.2269 53.31C67.3469 53.31 68.4069 54.47 68.4069 56.79V62.91L69.8969 63.3V64H63.9469ZM57.0869 64V63.3L58.5769 62.91V55.29L57.0669 54.73V54.28L61.1069 53.31H61.5469V55L61.6269 55.1V62.91L63.0269 63.3V64H57.0869ZM75.4873 68.95V68.48L77.1973 67.96V55.27L75.5273 54.73V54.26L79.6273 53.31H80.0873V54.78H80.1873C80.554 54.3267 81.034 53.97 81.6273 53.71C82.2207 53.4433 82.8407 53.31 83.4873 53.31C84.354 53.31 85.1207 53.5333 85.7873 53.98C86.454 54.42 86.9773 55.0333 87.3573 55.82C87.7373 56.6 87.9273 57.4967 87.9273 58.51C87.9273 59.6567 87.6873 60.66 87.2073 61.52C86.7273 62.3733 86.054 63.0367 85.1873 63.51C84.3273 63.9767 83.314 64.21 82.1473 64.21C81.7873 64.21 81.4573 64.1833 81.1573 64.13C80.8573 64.0767 80.564 64 80.2773 63.9V67.96L82.9073 68.48V68.95H75.4873ZM82.1873 63.14C82.6673 63.14 83.084 62.96 83.4373 62.6C83.7973 62.2333 84.0773 61.73 84.2773 61.09C84.4773 60.4433 84.5773 59.6967 84.5773 58.85C84.5773 57.6233 84.3673 56.6533 83.9473 55.94C83.5273 55.22 82.9607 54.86 82.2473 54.86C81.8407 54.86 81.4473 54.97 81.0673 55.19C80.694 55.41 80.4307 55.69 80.2773 56.03V60.95C80.2773 61.5567 80.464 62.0733 80.8373 62.5C81.2107 62.9267 81.6607 63.14 82.1873 63.14ZM92.0358 64.21C91.2291 64.21 90.5924 64 90.1258 63.58C89.6591 63.16 89.4258 62.5867 89.4258 61.86C89.4258 61.2 89.6324 60.63 90.0458 60.15C90.4591 59.67 91.0924 59.27 91.9458 58.95C92.8058 58.6233 93.8991 58.3667 95.2258 58.18V56.73C95.2258 55.8367 95.1424 55.2367 94.9758 54.93C94.8158 54.6233 94.4958 54.47 94.0158 54.47C93.5224 54.47 93.1324 54.59 92.8458 54.83C92.5591 55.0633 92.4158 55.3867 92.4158 55.8C92.4158 55.9467 92.4291 56.0967 92.4558 56.25C92.4824 56.3967 92.4958 56.54 92.4958 56.68C92.4958 57.06 92.3624 57.3767 92.0958 57.63C91.8358 57.8767 91.5124 58 91.1258 58C90.7391 58 90.4258 57.8767 90.1858 57.63C89.9458 57.3767 89.8258 57.05 89.8258 56.65C89.8258 56.2367 89.9624 55.8233 90.2358 55.41C90.5091 54.9967 90.8924 54.6267 91.3858 54.3C92.4258 53.64 93.6758 53.31 95.1358 53.31C95.8491 53.31 96.4224 53.3967 96.8558 53.57C97.2958 53.7367 97.6258 53.98 97.8458 54.3C97.9991 54.5467 98.1124 54.8667 98.1858 55.26C98.2591 55.6533 98.2958 56.2167 98.2958 56.95V61.03C98.2958 61.6167 98.3524 62.0433 98.4658 62.31C98.5791 62.57 98.7691 62.7 99.0358 62.7C99.3358 62.7 99.6324 62.5433 99.9258 62.23L100.376 62.87C99.9491 63.3233 99.5024 63.66 99.0358 63.88C98.5691 64.1 98.0524 64.21 97.4858 64.21C96.8391 64.21 96.3491 64.08 96.0158 63.82C95.6824 63.56 95.4658 63.1667 95.3658 62.64H95.2858C94.7924 63.1733 94.2791 63.57 93.7458 63.83C93.2124 64.0833 92.6424 64.21 92.0358 64.21ZM93.8558 62.33C94.1291 62.33 94.3824 62.2833 94.6158 62.19C94.8491 62.0967 95.0524 61.9567 95.2258 61.77V59.11C94.5858 59.2367 94.0824 59.38 93.7158 59.54C93.3558 59.7 93.1024 59.9 92.9558 60.14C92.8091 60.3733 92.7358 60.6767 92.7358 61.05C92.7358 61.4833 92.8258 61.8067 93.0058 62.02C93.1858 62.2267 93.4691 62.33 93.8558 62.33ZM107.658 64V63.3L109.048 62.91V57.49C109.048 56.6767 108.884 56.0767 108.558 55.69C108.231 55.2967 107.741 55.1 107.088 55.1C106.261 55.1 105.601 55.4533 105.108 56.16V54.91C105.581 54.43 106.138 54.0433 106.778 53.75C107.424 53.4567 108.144 53.31 108.938 53.31C111.058 53.31 112.118 54.47 112.118 56.79V62.91L113.608 63.3V64H107.658ZM100.798 64V63.3L102.288 62.91V55.29L100.778 54.73V54.28L104.818 53.31H105.258V55L105.338 55.1V62.91L106.738 63.3V64H100.798ZM120.119 64.21C119.025 64.21 118.069 63.99 117.249 63.55C116.435 63.1033 115.802 62.4833 115.349 61.69C114.902 60.89 114.679 59.9667 114.679 58.92C114.679 57.8067 114.929 56.83 115.429 55.99C115.929 55.15 116.622 54.4933 117.509 54.02C118.402 53.5467 119.435 53.31 120.609 53.31C122.122 53.31 123.272 53.72 124.059 54.54C124.852 55.3533 125.272 56.5533 125.319 58.14L125.169 58.27H116.529V57.37L122.039 57.17C122.092 57.03 122.119 56.78 122.119 56.42C122.119 55.02 121.532 54.32 120.359 54.32C119.592 54.32 119.002 54.6533 118.589 55.32C118.182 55.9867 117.979 56.9333 117.979 58.16C117.979 60.8267 119.009 62.16 121.069 62.16C122.495 62.16 123.619 61.6733 124.439 60.7L124.989 61.17C124.635 62.13 124.029 62.8767 123.169 63.41C122.315 63.9433 121.299 64.21 120.119 64.21ZM126.252 64V63.3L127.952 62.91V49.53L126.252 49V48.52L130.582 47.57H131.002V62.91L132.592 63.3V64H126.252Z" fill="black"/>
</svg>
