<svg width="126" height="31" viewBox="0 0 126 31" fill="none" xmlns="http://www.w3.org/2000/svg">
<path d="M0.494 30V28.686L3.536 27.984V4.548L0.494 3.882V2.586H22.292L22.904 10.416H21.518C21.23 9.48 20.882 8.508 20.474 7.5C20.066 6.492 19.562 5.52 18.962 4.584H9.62V27.984L13.67 28.686V30H0.494ZM15.74 20.478C15.512 19.158 15.074 17.808 14.426 16.428H9.152V14.538H14.426C14.774 13.854 15.05 13.182 15.254 12.522C15.458 11.85 15.62 11.184 15.74 10.524H17.144V20.478H15.74ZM33.4753 30.378C31.3033 30.378 29.4553 29.934 27.9313 29.046C26.4193 28.158 25.2673 26.97 24.4753 25.482C23.6953 23.994 23.3053 22.356 23.3053 20.568C23.3053 18.768 23.6953 17.13 24.4753 15.654C25.2673 14.166 26.4193 12.978 27.9313 12.09C29.4553 11.202 31.3033 10.758 33.4753 10.758C35.6473 10.758 37.4833 11.202 38.9833 12.09C40.4953 12.978 41.6473 14.166 42.4393 15.654C43.2313 17.13 43.6273 18.768 43.6273 20.568C43.6273 22.356 43.2313 23.994 42.4393 25.482C41.6473 26.97 40.4953 28.158 38.9833 29.046C37.4833 29.934 35.6473 30.378 33.4753 30.378ZM33.4753 28.542C34.3393 28.542 35.0413 28.29 35.5813 27.786C36.1333 27.27 36.5533 26.604 36.8413 25.788C37.1413 24.972 37.3453 24.108 37.4533 23.196C37.5733 22.272 37.6333 21.396 37.6333 20.568C37.6333 19.752 37.5793 18.882 37.4713 17.958C37.3633 17.034 37.1593 16.17 36.8593 15.366C36.5713 14.55 36.1513 13.89 35.5993 13.386C35.0593 12.87 34.3513 12.612 33.4753 12.612C32.5993 12.612 31.8853 12.87 31.3333 13.386C30.7813 13.89 30.3553 14.55 30.0553 15.366C29.7673 16.17 29.5693 17.034 29.4613 17.958C29.3533 18.882 29.2993 19.752 29.2993 20.568C29.2993 21.396 29.3533 22.272 29.4613 23.196C29.5693 24.108 29.7673 24.972 30.0553 25.788C30.3553 26.604 30.7813 27.27 31.3333 27.786C31.8853 28.29 32.5993 28.542 33.4753 28.542ZM56.3621 30.378C54.1901 30.378 52.3421 29.934 50.8181 29.046C49.3061 28.158 48.1541 26.97 47.3621 25.482C46.5821 23.994 46.1921 22.356 46.1921 20.568C46.1921 18.768 46.5821 17.13 47.3621 15.654C48.1541 14.166 49.3061 12.978 50.8181 12.09C52.3421 11.202 54.1901 10.758 56.3621 10.758C58.5341 10.758 60.3701 11.202 61.8701 12.09C63.3821 12.978 64.5341 14.166 65.3261 15.654C66.1181 17.13 66.5141 18.768 66.5141 20.568C66.5141 22.356 66.1181 23.994 65.3261 25.482C64.5341 26.97 63.3821 28.158 61.8701 29.046C60.3701 29.934 58.5341 30.378 56.3621 30.378ZM56.3621 28.542C57.2261 28.542 57.9281 28.29 58.4681 27.786C59.0201 27.27 59.4401 26.604 59.7281 25.788C60.0281 24.972 60.2321 24.108 60.3401 23.196C60.4601 22.272 60.5201 21.396 60.5201 20.568C60.5201 19.752 60.4661 18.882 60.3581 17.958C60.2501 17.034 60.0461 16.17 59.7461 15.366C59.4581 14.55 59.0381 13.89 58.4861 13.386C57.9461 12.87 57.2381 12.612 56.3621 12.612C55.4861 12.612 54.7721 12.87 54.2201 13.386C53.6681 13.89 53.2421 14.55 52.9421 15.366C52.6541 16.17 52.4561 17.034 52.3481 17.958C52.2401 18.882 52.1861 19.752 52.1861 20.568C52.1861 21.396 52.2401 22.272 52.3481 23.196C52.4561 24.108 52.6541 24.972 52.9421 25.788C53.2421 26.604 53.6681 27.27 54.2201 27.786C54.7721 28.29 55.4861 28.542 56.3621 28.542ZM77.2328 30.378C75.7208 30.378 74.3468 29.964 73.1108 29.136C71.8868 28.308 70.9148 27.18 70.1948 25.752C69.4748 24.312 69.1148 22.686 69.1148 20.874C69.1148 18.882 69.5288 17.13 70.3568 15.618C71.1848 14.094 72.3308 12.906 73.7948 12.054C75.2588 11.19 76.9448 10.758 78.8528 10.758C80.2328 10.758 81.6068 11.058 82.9748 11.658V3.99L79.9508 3V2.172L87.7268 0.425998H88.5008V26.526L91.3268 27.408V28.128L83.9108 30.378H83.2628V28.182L83.0828 28.11C82.3508 28.83 81.4808 29.388 80.4728 29.784C79.4768 30.18 78.3968 30.378 77.2328 30.378ZM79.5188 27.804C80.2268 27.804 80.8748 27.636 81.4628 27.3C82.0508 26.964 82.5548 26.508 82.9748 25.932V17.112C82.9748 15.792 82.6628 14.724 82.0388 13.908C81.4148 13.092 80.5868 12.684 79.5548 12.684C78.2468 12.684 77.1908 13.386 76.3868 14.79C75.5948 16.182 75.1988 18.012 75.1988 20.28C75.1988 22.584 75.5768 24.414 76.3328 25.77C77.1008 27.126 78.1628 27.804 79.5188 27.804ZM92.6233 30V28.74L95.6653 28.038V14.286L92.6233 13.314V12.468L100.435 10.758H101.191V28.038L104.035 28.74V30H92.6233ZM98.3653 8.094C97.3813 8.094 96.6253 7.788 96.0973 7.176C95.5693 6.564 95.3053 5.898 95.3053 5.178C95.3053 4.398 95.5753 3.708 96.1153 3.108C96.6673 2.508 97.4173 2.208 98.3653 2.208C99.3373 2.208 100.105 2.508 100.669 3.108C101.245 3.708 101.533 4.398 101.533 5.178C101.533 5.898 101.263 6.564 100.723 7.176C100.195 7.788 99.4093 8.094 98.3653 8.094ZM115.679 30.378C113.711 30.378 111.989 29.982 110.513 29.19C109.049 28.386 107.909 27.27 107.093 25.842C106.289 24.402 105.887 22.74 105.887 20.856C105.887 18.852 106.337 17.094 107.237 15.582C108.137 14.07 109.385 12.888 110.981 12.036C112.589 11.184 114.449 10.758 116.561 10.758C119.285 10.758 121.355 11.496 122.771 12.972C124.199 14.436 124.955 16.596 125.039 19.452L124.769 19.686H109.217V18.066L119.135 17.706C119.231 17.454 119.279 17.004 119.279 16.356C119.279 13.836 118.223 12.576 116.111 12.576C114.731 12.576 113.669 13.176 112.925 14.376C112.193 15.576 111.827 17.28 111.827 19.488C111.827 24.288 113.681 26.688 117.389 26.688C119.957 26.688 121.979 25.812 123.455 24.06L124.445 24.906C123.809 26.634 122.717 27.978 121.169 28.938C119.633 29.898 117.803 30.378 115.679 30.378Z" fill="black"/>
</svg>
