<svg width="44" height="40" viewBox="0 0 44 40" fill="none" xmlns="http://www.w3.org/2000/svg">
<path fill-rule="evenodd" clip-rule="evenodd" d="M4.39977 8C4.01079 8 3.63774 8.14048 3.36268 8.39052C3.08763 8.64057 2.93311 8.97971 2.93311 9.33333C2.93311 9.68696 3.08763 10.0261 3.36268 10.2761C3.63774 10.5262 4.01079 10.6667 4.39977 10.6667H39.5998C39.9888 10.6667 40.3618 10.5262 40.6369 10.2761C40.9119 10.0261 41.0664 9.68696 41.0664 9.33333C41.0664 8.97971 40.9119 8.64057 40.6369 8.39052C40.3618 8.14048 39.9888 8 39.5998 8H4.39977ZM2.93311 20C2.93311 19.6464 3.08763 19.3072 3.36268 19.0572C3.63774 18.8071 4.01079 18.6667 4.39977 18.6667H39.5998C39.9888 18.6667 40.3618 18.8071 40.6369 19.0572C40.9119 19.3072 41.0664 19.6464 41.0664 20C41.0664 20.3536 40.9119 20.6928 40.6369 20.9428C40.3618 21.1929 39.9888 21.3333 39.5998 21.3333H4.39977C4.01079 21.3333 3.63774 21.1929 3.36268 20.9428C3.08763 20.6928 2.93311 20.3536 2.93311 20ZM2.93311 30.6667C2.93311 30.313 3.08763 29.9739 3.36268 29.7239C3.63774 29.4738 4.01079 29.3333 4.39977 29.3333H39.5998C39.9888 29.3333 40.3618 29.4738 40.6369 29.7239C40.9119 29.9739 41.0664 30.313 41.0664 30.6667C41.0664 31.0203 40.9119 31.3594 40.6369 31.6095C40.3618 31.8595 39.9888 32 39.5998 32H4.39977C4.01079 32 3.63774 31.8595 3.36268 31.6095C3.08763 31.3594 2.93311 31.0203 2.93311 30.6667Z" fill="#252424"/>
</svg>
