<svg width="24" height="24" viewBox="0 0 32 32" fill="none" xmlns="http://www.w3.org/2000/svg">
<path d="M2 14.5295V28.139C2 29.1906 2.896 30.0588 3.984 30.0588H18.016C19.102 30.0588 20 29.1928 20 28.139V14.5295C20 13.4779 19.104 12.6097 18.016 12.6097H3.984C2.898 12.6097 2 13.4758 2 14.5295ZM8 10.6686V12.6097H14V10.6686H18.016C20.216 10.6686 22 12.4135 22 14.5295V28.139C22 30.2722 20.2 32 18.016 32H3.984C1.784 32 0 30.2551 0 28.139V14.5295C0 12.3964 1.8 10.6686 3.984 10.6686H8ZM11.994 3.09163L12 3.20255V20.2677C12 20.5506 11.8946 20.8219 11.7071 21.0219C11.5196 21.2219 11.2652 21.3343 11 21.3343C10.7348 21.3343 10.4804 21.2219 10.2929 21.0219C10.1054 20.8219 10 20.5506 10 20.2677V3.16629L6.36 7.24273C6.26252 7.35725 6.14366 7.44876 6.01105 7.51138C5.87844 7.574 5.73502 7.60635 5.59 7.60635C5.44498 7.60635 5.30156 7.574 5.16895 7.51138C5.03634 7.44876 4.91748 7.35725 4.82 7.24273C4.61411 7.0006 4.50006 6.68542 4.50006 6.35854C4.50006 6.03166 4.61411 5.71648 4.82 5.47435L8.72 1.10141C9.01077 0.75488 9.3668 0.477671 9.76484 0.287884C10.1629 0.098097 10.594 0 11.03 0C11.466 0 11.8971 0.098097 12.2952 0.287884C12.6932 0.477671 13.0492 0.75488 13.34 1.10141L17.24 5.47435C17.4465 5.71661 17.5608 6.03223 17.5608 6.35961C17.5608 6.68698 17.4465 7.0026 17.24 7.24486C17.1425 7.35938 17.0237 7.45089 16.8911 7.51351C16.7584 7.57614 16.615 7.60849 16.47 7.60849C16.325 7.60849 16.1816 7.57614 16.049 7.51351C15.9163 7.45089 15.7975 7.35938 15.7 7.24486L11.994 3.09163Z" fill="#ADA9A9"/>
</svg>
